# xmcd
#
# Track frame offsets:
#   150
#   12215
#   26737
#   38074
#   50517
#   63581
#   75242
#   85364
#   101047
#   116568
#   131225
#   143506
#   157623
#   169931
#   183805
#   194764
#   208800
#   225238
#   237951
#   254065
#   268263
#   282704
#   301113
#   315851
#
# Disc length: 4334 seconds
#
# Revision: 0
# Processed by: cddbd v1.5.1PL0 Copyright (c) Steve Scherf et al.
# Submitted via: uFREEDB ActiveX Control 1.5
#
DISCID=4b10ec18
DTITLE=PEDRO BENTO and ZE DA ESTRADA - GS
DYEAR=1900
DGENRE=Alternative
TTITLE0=DAMA DE VERMELHO
TTITLE1=ALMA VAZIA
TTITLE2=ANSIA DE AMOR
TTITLE3=LADRAO DE BEIJOS
TTITLE4=CAMINHOS DA VIDA
TTITLE5=PERDIDO DE AMOR
TTITLE6=TERNURA DOS TEUS BEIJOS
TTITLE7=FLOR DA LAMA
TTITLE8=PARAGUAIA
TTITLE9=DAMA DE BRANCO
TTITLE10=SERENATA DO AMOR
TTITLE11=SERESTEIRO DA LUA
TTITLE12=BEBENDO E CHORANDO
TTITLE13=TAÇA DA DOR
TTITLE14=CASA VAZIA
TTITLE15=O AMOR E A ROSA
TTITLE16=MAGOAS DE BOIADEIRO
TTITLE17=BONECA COBIÇADA
TTITLE18=JOAO DE BARRO
TTITLE19=RECORDAÇÃO
TTITLE20=GALOPEIRA
TTITLE21=OS TRES BOIADEIROS
TTITLE22=SETE LEGUAS
TTITLE23=RANCHINHO DE TAQUARA
EXTD=
EXTT0=
EXTT1=
EXTT2=
EXTT3=
EXTT4=
EXTT5=
EXTT6=
EXTT7=
EXTT8=
EXTT9=
EXTT10=
EXTT11=
EXTT12=
EXTT13=
EXTT14=
EXTT15=
EXTT16=
EXTT17=
EXTT18=
EXTT19=
EXTT20=
EXTT21=
EXTT22=
EXTT23=
PLAYORDER=
